<svg width="137" height="64" viewBox="0 0 137 64" fill="none" xmlns="http://www.w3.org/2000/svg">
<path d="M26.9445 20.6499C24.6512 17.9972 21.2489 16.3919 16.5973 16.3919C7.49941 16.3919 0 24.4184 0 34.817C0 45.2155 7.49941 53.2386 16.5973 53.2386C21.2489 53.2386 24.6512 51.6333 26.9445 48.9806V52.2597H37.3601V0H26.9445V20.6499ZM18.6818 43.3296C13.8898 43.3296 10.4191 40.0505 10.4191 34.817C10.4191 29.5835 13.8898 26.3044 18.6818 26.3044C23.4737 26.3044 26.9445 29.5835 26.9445 34.817C26.9445 40.0505 23.4737 43.3296 18.6818 43.3296Z" fill="#1759FF"/>
<path d="M69.8703 20.6498C67.577 17.9972 64.1747 16.3918 59.5231 16.3918C50.4252 16.3918 42.9258 24.4184 42.9258 34.8135C42.9258 45.2086 50.4252 53.2351 59.5231 53.2351C64.1747 53.2351 67.577 51.6298 69.8703 48.9771V52.2562H80.2859V16.3918H69.8703V20.6498ZM61.6076 43.3295C56.8156 43.3295 53.3449 40.0504 53.3449 34.8169C53.3449 29.5834 56.8156 26.3043 61.6076 26.3043C66.3995 26.3043 69.8703 29.5834 69.8703 34.8169C69.8703 40.0504 66.3995 43.3295 61.6076 43.3295Z" fill="#1759FF"/>
<path d="M130.622 23.5183C134.024 23.5183 136.872 20.6568 136.872 17.2374C136.872 13.818 134.024 10.9565 130.622 10.9565C127.22 10.9565 124.372 13.818 124.372 17.2374C124.372 20.6568 127.22 23.5183 130.622 23.5183Z" fill="#1759FF"/>
<path d="M135.828 30.9219H125.412V52.2632H135.828V30.9219Z" fill="#1759FF"/>
<path d="M108.418 17.2545L97.6703 29.9874V0H87.2546V64H97.6703V43.6684L100.775 39.9923L108.089 52.1502H119.46L107.412 32.1232L119.96 17.2545H108.418Z" fill="#1759FF"/>
</svg>
